# xmcd
#
# Track frame offsets:
#	150
#	14915
#	35051
#	44930
#	60127
#	72543
#	87578
#	100534
#	119699
#	132385
#	149525
#	165289
#	179271
#	193118
#	205939
#	221703
#	239572
#	258413
#	274797
#	287510
#
# Disc length: 4041 seconds
#
# Revision: 1
# Processed by: cddbd v1.4PL0 Copyright (c) Steve Scherf et al.
# Submitted via: audiograbber 1.81.02
#
DISCID=430fc714
DTITLE=Sérgio Reis - As 20 Mais
DYEAR=2002
DGENRE=Country
TTITLE0=Panela Velha
TTITLE1=Pinga ne Mim
TTITLE2=Adeus Mariana
TTITLE3=Disco Voador
TTITLE4=Cavalo Preto
TTITLE5=Menino da Porteira
TTITLE6=Saudade da Minha Terra
TTITLE7=Menino da Gaita
TTITLE8=Chalana
TTITLE9=Filho Adotivo
TTITLE10=Boiadeiro Errante
TTITLE11=Coração de Papel
TTITLE12=Rio de Lágrimas
TTITLE13=João de Barro
TTITLE14=Filho Prodígio
TTITLE15=Caminheiro
TTITLE16=Mágoa de Boiadeiro
TTITLE17=Chico Mineiro
TTITLE18=Pé de Cedro
TTITLE19=Comitiva Esperança
EXTD=
EXTT0=
EXTT1=
EXTT2=
EXTT3=
EXTT4=
EXTT5=
EXTT6=
EXTT7=
EXTT8=
EXTT9=
EXTT10=
EXTT11=
EXTT12=
EXTT13=
EXTT14=
EXTT15=
EXTT16=
EXTT17=
EXTT18=
EXTT19=
PLAYORDER=
